<svg width="24" height="24" viewBox="0 0 24 24" fill="none" xmlns="http://www.w3.org/2000/svg">
<path d="M12 14C11.6044 14 11.2178 14.1173 10.8889 14.3371C10.56 14.5568 10.3036 14.8692 10.1522 15.2346C10.0009 15.6001 9.96126 16.0022 10.0384 16.3902C10.1156 16.7781 10.3061 17.1345 10.5858 17.4142C10.8655 17.6939 11.2219 17.8844 11.6098 17.9616C11.9978 18.0387 12.3999 17.9991 12.7654 17.8478C13.1308 17.6964 13.4432 17.44 13.6629 17.1111C13.8827 16.7822 14 16.3956 14 16C14 15.4696 13.7893 14.9609 13.4142 14.5858C13.0391 14.2107 12.5304 14 12 14ZM5 14C4.60444 14 4.21776 14.1173 3.88886 14.3371C3.55996 14.5568 3.30362 14.8692 3.15224 15.2346C3.00087 15.6001 2.96126 16.0022 3.03843 16.3902C3.1156 16.7781 3.30608 17.1345 3.58579 17.4142C3.86549 17.6939 4.22186 17.8844 4.60982 17.9616C4.99778 18.0387 5.39992 17.9991 5.76537 17.8478C6.13082 17.6964 6.44318 17.44 6.66294 17.1111C6.8827 16.7822 7 16.3956 7 16C7 15.4696 6.78929 14.9609 6.41421 14.5858C6.03914 14.2107 5.53043 14 5 14ZM19 14C18.6044 14 18.2178 14.1173 17.8889 14.3371C17.56 14.5568 17.3036 14.8692 17.1522 15.2346C17.0009 15.6001 16.9613 16.0022 17.0384 16.3902C17.1156 16.7781 17.3061 17.1345 17.5858 17.4142C17.8655 17.6939 18.2219 17.8844 18.6098 17.9616C18.9978 18.0387 19.3999 17.9991 19.7654 17.8478C20.1308 17.6964 20.4432 17.44 20.6629 17.1111C20.8827 16.7822 21 16.3956 21 16C21 15.4696 20.7893 14.9609 20.4142 14.5858C20.0391 14.2107 19.5304 14 19 14Z" fill="#C5C7D0"/>
<path d="M12 6C11.6044 6 11.2178 6.1173 10.8889 6.33706C10.56 6.55682 10.3036 6.86918 10.1522 7.23463C10.0009 7.60009 9.96126 8.00222 10.0384 8.39018C10.1156 8.77814 10.3061 9.13451 10.5858 9.41421C10.8655 9.69392 11.2219 9.8844 11.6098 9.96157C11.9978 10.0387 12.3999 9.99913 12.7654 9.84776C13.1308 9.69638 13.4432 9.44004 13.6629 9.11114C13.8827 8.78224 14 8.39556 14 8C14 7.46957 13.7893 6.96086 13.4142 6.58579C13.0391 6.21071 12.5304 6 12 6ZM5 6C4.60444 6 4.21776 6.1173 3.88886 6.33706C3.55996 6.55682 3.30362 6.86918 3.15224 7.23463C3.00087 7.60009 2.96126 8.00222 3.03843 8.39018C3.1156 8.77814 3.30608 9.13451 3.58579 9.41421C3.86549 9.69392 4.22186 9.8844 4.60982 9.96157C4.99778 10.0387 5.39992 9.99913 5.76537 9.84776C6.13082 9.69638 6.44318 9.44004 6.66294 9.11114C6.8827 8.78224 7 8.39556 7 8C7 7.46957 6.78929 6.96086 6.41421 6.58579C6.03914 6.21071 5.53043 6 5 6ZM19 6C18.6044 6 18.2178 6.1173 17.8889 6.33706C17.56 6.55682 17.3036 6.86918 17.1522 7.23463C17.0009 7.60009 16.9613 8.00222 17.0384 8.39018C17.1156 8.77814 17.3061 9.13451 17.5858 9.41421C17.8655 9.69392 18.2219 9.8844 18.6098 9.96157C18.9978 10.0387 19.3999 9.99913 19.7654 9.84776C20.1308 9.69638 20.4432 9.44004 20.6629 9.11114C20.8827 8.78224 21 8.39556 21 8C21 7.46957 20.7893 6.96086 20.4142 6.58579C20.0391 6.21071 19.5304 6 19 6Z" fill="#C5C7D0"/>
</svg>
